<svg width="25" height="25" viewBox="0 0 25 25" fill="none" xmlns="http://www.w3.org/2000/svg">
<path d="M6.43567 10.6717V8.67922C6.43567 5.38163 7.43192 2.70172 12.4132 2.70172C17.3944 2.70172 18.3907 5.38163 18.3907 8.67922V10.6717" stroke="#797979" stroke-width="1.49438" stroke-linecap="round" stroke-linejoin="round"/>
<path d="M12.4127 19.1398C13.7883 19.1398 14.9034 18.0247 14.9034 16.6492C14.9034 15.2736 13.7883 14.1585 12.4127 14.1585C11.0372 14.1585 9.92212 15.2736 9.92212 16.6492C9.92212 18.0247 11.0372 19.1398 12.4127 19.1398Z" stroke="#797979" stroke-width="1.49438" stroke-linecap="round" stroke-linejoin="round"/>
<path d="M17.3939 22.6265H7.43139C3.44638 22.6265 2.45013 21.6302 2.45013 17.6452V15.6527C2.45013 11.6677 3.44638 10.6715 7.43139 10.6715H17.3939C21.3789 10.6715 22.3751 11.6677 22.3751 15.6527V17.6452C22.3751 21.6302 21.3789 22.6265 17.3939 22.6265Z" stroke="#797979" stroke-width="1.49438" stroke-linecap="round" stroke-linejoin="round"/>
</svg>
